<svg xmlns:xlink="http://www.w3.org/1999/xlink" width="100%" height="100%" viewBox="0 0 64 64" version="1.1"
     xmlns="http://www.w3.org/2000/svg" xml:space="preserve"
     style="fill-rule:evenodd;clip-rule:evenodd;stroke-linejoin:round;stroke-miterlimit:2;">
    <g transform="matrix(0.32,0,0,0.320002,-320,-160.001)">
        <path d="M1100,500C1155.19,500 1200,544.808 1200,600C1200,655.192 1155.19,700 1100,700C1044.81,700 1000,655.192 1000,600C1000,544.808 1044.81,500 1100,500ZM1098.74,679.578C1099.16,679.585 1099.58,679.589 1100,679.589L1099.49,679.587C1099.32,679.586 1099.15,679.584 1098.97,679.582L1098.74,679.578ZM1100.01,520.411L1100.01,679.589C1143.93,679.582 1179.59,643.922 1179.59,600C1179.59,556.078 1143.93,520.418 1100.01,520.411ZM1100,520.411C1099.66,520.412 1099.32,520.414 1098.97,520.418C1099.15,520.416 1099.32,520.414 1099.49,520.413L1100,520.411Z"/>
    </g>
</svg>
