<svg xmlns:xlink="http://www.w3.org/1999/xlink" width="100%" height="100%" viewBox="0 0 64 64" version="1.1"
     xmlns="http://www.w3.org/2000/svg" xml:space="preserve"
     style="fill-rule:evenodd;clip-rule:evenodd;stroke-linejoin:round;stroke-miterlimit:2;">
    <g transform="matrix(0.142848,0,0,0.142848,0,-9.13805)">
        <path d="M432,320L400,320C391.223,320 384,327.223 384,336L384,448L64,448L64,128L208,128C216.777,128 224,120.777 224,112L224,80C224,71.223 216.777,64 208,64L48,64C21.668,64 -0,85.668 0,112L0,464C0,490.332 21.668,512 48,512L400,512C426.332,512 448,490.332 448,464L448,336C448,327.223 440.777,320 432,320Z"
              style="fill-rule:nonzero;"/>

        <!-- Arrow -->
        <g class="arrow" transform="matrix(7.00045,0,0,7.00045,0,63.9704)">
            <path d="M44.958,10.96L21.102,34.808C19.745,36.366 19.724,37.984 21.102,39.665L24.34,42.897C25.945,44.22 27.563,44.295 29.197,42.897L53.04,19.047L58.139,24.141C60.026,26.054 63.752,25.137 64,21.953L63.996,3.428C63.766,1.254 62.551,0.193 60.568,0L42.283,0C39.151,0.043 37.72,3.755 39.855,5.857L44.958,10.96Z"/>
        </g>
    </g>
</svg>
