<svg width="100%" height="100%" viewBox="0 0 64 64" version="1.1" xmlns="http://www.w3.org/2000/svg"
     xml:space="preserve" style="fill-rule:evenodd;clip-rule:evenodd;stroke-linejoin:round;stroke-miterlimit:2;">
    <g transform="matrix(0.142848,0,0,0.142848,0,-9.13805)">
        <path d="M432,320L400,320C391.223,320 384,327.223 384,336L384,448L64,448L64,128L208,128C216.777,128 224,120.777 224,112L224,80C224,71.223 216.777,64 208,64L48,64C21.668,64 -0,85.668 0,112L0,464C0,490.332 21.668,512 48,512L400,512C426.332,512 448,490.332 448,464L448,336C448,327.223 440.777,320 432,320Z"
              style="fill-rule:nonzero;"/>
        <g transform="matrix(-5.35818e-17,0.875058,0.875058,5.35818e-17,140.651,-76.6806)">
            <!-- Arrow -->
            <path class="arrow"
                  d="M359.663,87.681L168.812,278.461C163.65,283.605 160.745,290.601 160.745,297.888C160.745,305.176 163.65,312.171 168.812,317.316L194.719,343.177C199.863,348.339 206.858,351.244 214.146,351.244C221.434,351.244 228.429,348.339 233.573,343.177L424.316,152.379L465.112,193.13C482.254,210.272 511.966,198.273 511.966,173.703L511.966,27.427C511.966,12.381 499.585,0 484.54,0L338.263,0C313.842,0 301.637,29.609 318.836,46.854L359.663,87.681Z"
                  style="fill-rule:nonzero;"/>
        </g>
    </g>
</svg>
