<svg xmlns:xlink="http://www.w3.org/1999/xlink" width="100%" height="100%" viewBox="0 0 64 65" version="1.1"
     xmlns="http://www.w3.org/2000/svg" xml:space="preserve"
     style="fill-rule:evenodd;clip-rule:evenodd;stroke-linejoin:round;stroke-miterlimit:2;">
    <g transform="matrix(1.3913,0,0,1.10346,-4773.56,-272.554)">
        <path d="M3454,247C3466.69,247 3477,259.994 3477,276C3477,292.006 3466.69,305 3454,305C3441.31,305 3431,292.006 3431,276C3431,259.994 3441.31,247 3454,247ZM3454,252.91C3464.11,252.91 3472.31,263.256 3472.31,276C3472.31,288.744 3464.11,299.09 3454,299.09C3443.89,299.09 3435.69,288.744 3435.69,276C3435.69,263.256 3443.89,252.91 3454,252.91Z"/>
    </g>
</svg>
