<svg xmlns:xlink="http://www.w3.org/1999/xlink" width="142" height="115" viewBox="0 0 142 115" version="1.1"
     xmlns="http://www.w3.org/2000/svg" xml:space="preserve"
     style="fill-rule:evenodd;clip-rule:evenodd;stroke-linejoin:round;stroke-miterlimit:2;"><g id="spike_outline" transform="matrix(10,0,0,10,0,0)"> <path
        d="M13.331,3.556L11.344,4.734C11.821,5.179 12.12,5.813 12.12,6.517C12.12,6.713 12.096,6.903 12.052,7.086L14.198,7.801L11.898,7.533C11.536,8.322 10.766,8.883 9.858,8.948L11.04,10.801L9.027,8.982C8.632,9.416 8.114,9.736 7.528,9.886L7.298,11.625L7.038,9.969C6.949,9.977 6.859,9.982 6.768,9.982C6.06,9.982 5.41,9.74 4.892,9.336L3.306,10.801L4.498,9.009C4.441,9.013 4.384,9.016 4.326,9.016C3.516,9.016 2.8,8.612 2.369,7.995L-0.002,8.499L2.132,7.572C2.007,7.282 1.938,6.963 1.938,6.627C1.938,5.907 2.257,5.262 2.761,4.824L0.553,3.674L2.879,4.32C2.865,4.213 2.857,4.103 2.857,3.992C2.857,3.041 3.38,2.212 4.153,1.775L3.332,0.155L4.48,1.62C4.766,1.509 5.076,1.448 5.401,1.448C6.226,1.448 6.958,1.841 7.423,2.45C7.784,2.238 8.204,2.117 8.652,2.117C9.081,2.117 9.483,2.228 9.833,2.423L11.288,0.877L10.21,2.681C10.681,3.074 11.002,3.642 11.072,4.285L13.331,3.556Z"
        style="fill:rgb(255,117,24);"/> </g>
    <g id="cloud" transform="matrix(10,0,0,10,0,0)"> <path
            d="M11.736,6.519C11.736,7.654 10.816,8.575 9.68,8.575C9.428,8.575 9.187,8.529 8.964,8.446C8.482,9.143 7.678,9.601 6.766,9.601C5.925,9.601 5.174,9.211 4.685,8.602C4.568,8.623 4.448,8.635 4.325,8.635C3.217,8.635 2.318,7.737 2.318,6.629C2.318,5.849 2.763,5.175 3.412,4.842C3.3,4.582 3.238,4.295 3.238,3.993C3.238,2.799 4.206,1.832 5.4,1.832C6.233,1.832 6.956,2.303 7.316,2.994C7.675,2.687 8.141,2.501 8.65,2.501C9.784,2.501 10.702,3.42 10.702,4.553C10.702,4.613 10.699,4.672 10.694,4.73C11.316,5.084 11.736,5.752 11.736,6.519Z"
            style="fill:white;"/> </g>
    <g id="shadow" transform="matrix(10,0,0,10,0,0)"> <path
            d="M9.68,8.575C9.428,8.575 9.187,8.529 8.964,8.446C8.482,9.143 7.678,9.601 6.766,9.601C5.925,9.601 5.174,9.211 4.685,8.602C4.568,8.623 4.448,8.635 4.325,8.635C3.217,8.635 2.318,7.737 2.318,6.629C2.318,6.563 2.322,6.499 2.328,6.435C2.425,7.452 3.282,8.248 4.325,8.248C4.364,8.248 4.403,8.246 4.442,8.244C4.223,7.856 4.097,7.409 4.097,6.932C4.097,6.866 4.1,6.802 4.105,6.738C4.204,8.121 5.357,9.213 6.766,9.213C8.175,9.213 9.328,8.121 9.428,6.738C9.432,6.802 9.435,6.866 9.435,6.932C9.435,7.358 9.335,7.761 9.157,8.119C9.324,8.163 9.499,8.187 9.68,8.187C10.75,8.187 11.629,7.369 11.727,6.325C11.733,6.389 11.736,6.453 11.736,6.519C11.736,7.654 10.816,8.575 9.68,8.575Z"
            style="fill:rgb(216,221,223);"/> </g>
    <g id="exclamation_outline" transform="matrix(10,0,0,10,0,0)"> <path
            d="M9.215,0.819L7.699,5.296C7.679,5.367 7.604,5.425 7.532,5.425L6.266,5.425C6.17,5.425 6.136,5.323 6.156,5.251L7.15,0.775C7.17,0.704 7.244,0.646 7.316,0.646L9.106,0.646C9.21,0.646 9.243,0.732 9.215,0.819ZM7.616,6.773C7.616,7.338 7.156,7.813 6.591,7.813C6.027,7.813 5.551,7.338 5.551,6.773C5.551,6.223 6.027,5.748 6.591,5.748C7.156,5.748 7.616,6.223 7.616,6.773Z"
            style="fill:rgb(42,183,126);"/> </g>
    <g transform="matrix(10,0,0,10,0,0)"> <path
            d="M7.35,5.037L6.571,5.037L7.435,1.033L8.734,1.033L7.35,5.037ZM7.198,6.776C7.198,7.129 6.91,7.426 6.557,7.426C6.204,7.426 5.907,7.129 5.907,6.776C5.907,6.432 6.204,6.135 6.557,6.135C6.91,6.135 7.198,6.432 7.198,6.776Z"
            style="fill:rgb(216,221,223);"/> </g></svg>
