<svg xmlns:xlink="http://www.w3.org/1999/xlink" width="100%" height="100%" viewBox="0 0 3444 519" version="1.1"
     xmlns="http://www.w3.org/2000/svg" xml:space="preserve"
     style="fill-rule:evenodd;clip-rule:evenodd;stroke-linejoin:round;stroke-miterlimit:2;">
    <g transform="matrix(1,0,0,1,-559.488,-284.523)">
        <path d="M782.269,696.7L776.41,779.122L559.808,779.122L559.808,765.255C562.933,764.994 567.458,764.539 573.382,763.888C579.307,763.237 583.441,762.39 585.785,761.349C589.691,759.656 592.523,757.182 594.281,753.927C596.038,750.671 596.917,746.505 596.917,741.427L596.917,542.989C596.917,538.562 596.169,534.656 594.671,531.27C593.174,527.885 590.212,525.151 585.785,523.067C582.79,521.505 578.591,519.975 573.187,518.477C567.783,516.98 563.324,516.101 559.808,515.841L559.808,501.974L676.8,501.974L676.8,515.841C673.154,515.971 668.434,516.622 662.64,517.794C656.846,518.966 652.646,520.007 650.042,520.919C645.615,522.481 642.588,525.151 640.96,528.927C639.333,532.703 638.519,536.739 638.519,541.036L638.519,727.169C638.519,735.763 638.942,742.436 639.788,747.188C640.635,751.941 642.62,755.619 645.745,758.224C648.74,760.567 653.2,762.097 659.124,762.813C665.049,763.53 673.35,763.888 684.027,763.888C688.844,763.888 693.857,763.757 699.066,763.497C704.274,763.237 709.222,762.716 713.91,761.934C718.467,761.153 722.666,760.079 726.507,758.712C730.348,757.345 733.18,755.619 735.003,753.536C740.342,747.546 746.559,738.464 753.656,726.29C760.752,714.115 765.667,704.252 768.402,696.7L782.269,696.7Z"
              style="fill-rule:nonzero;"/>
        <path d="M967.23,733.809C959.157,749.174 948.35,761.414 934.808,770.528C921.266,779.643 905.706,784.2 888.128,784.2C872.633,784.2 859.059,781.466 847.406,775.997C835.752,770.528 826.149,763.106 818.597,753.731C811.045,744.356 805.413,733.419 801.702,720.919C797.992,708.419 796.136,695.203 796.136,681.27C796.136,668.77 798.122,656.498 802.093,644.454C806.064,632.41 811.891,621.57 819.574,611.934C826.995,602.69 836.208,595.235 847.21,589.571C858.213,583.907 870.55,581.075 884.222,581.075C898.285,581.075 910.329,583.289 920.355,587.716C930.381,592.143 938.519,598.197 944.769,605.88C950.758,613.171 955.218,621.765 958.148,631.661C961.077,641.557 962.542,652.299 962.542,663.888L962.542,676.778L835.003,676.778C835.003,689.408 836.208,700.867 838.617,711.153C841.025,721.44 844.834,730.489 850.042,738.302C855.12,745.854 861.761,751.811 869.964,756.173C878.167,760.535 887.933,762.716 899.261,762.716C910.85,762.716 920.843,760.014 929.242,754.61C937.64,749.207 945.745,739.474 953.558,725.411L967.23,733.809ZM924.066,660.372C924.066,653.08 923.447,645.268 922.21,636.934C920.973,628.601 918.988,621.635 916.253,616.036C913.258,610.046 909.157,605.164 903.949,601.388C898.74,597.612 892.035,595.724 883.831,595.724C870.16,595.724 858.799,601.42 849.749,612.813C840.7,624.207 835.785,640.059 835.003,660.372L924.066,660.372Z"
              style="fill-rule:nonzero;"/>
        <path d="M1175.04,784.2C1147.18,784.2 1125.37,774.955 1109.61,756.466C1093.86,737.976 1085.98,713.171 1085.98,682.052C1085.98,668.51 1088.1,655.847 1092.33,644.063C1096.56,632.28 1102.71,621.57 1110.79,611.934C1118.47,602.69 1128.1,595.235 1139.69,589.571C1151.28,583.907 1163.91,581.075 1177.58,581.075C1196.46,581.075 1211.83,585.6 1223.67,594.649C1235.52,603.699 1241.45,616.036 1241.45,631.661C1241.45,638.171 1239.89,643.933 1236.76,648.946C1233.64,653.959 1228.49,656.466 1221.33,656.466C1213.65,656.466 1207.69,654.513 1203.46,650.606C1199.23,646.7 1197.11,642.338 1197.11,637.52C1197.11,631.661 1197.89,625.639 1199.46,619.454C1201.02,613.269 1201.93,608.744 1202.19,605.88C1199.85,601.843 1196.36,599.142 1191.74,597.774C1187.12,596.407 1182.14,595.724 1176.8,595.724C1170.55,595.724 1164.59,597.058 1158.93,599.727C1153.27,602.397 1147.76,607.312 1142.42,614.474C1137.61,620.984 1133.7,629.773 1130.71,640.841C1127.71,651.908 1126.21,665.125 1126.21,680.489C1126.21,704.708 1131.59,724.467 1142.33,739.767C1153.07,755.066 1167.16,762.716 1184.61,762.716C1197.24,762.716 1207.82,759.656 1216.35,753.536C1224.88,747.416 1232.79,738.237 1240.08,725.997L1252.58,734.2C1243.99,749.565 1232.66,761.739 1218.6,770.724C1204.54,779.708 1190.02,784.2 1175.04,784.2Z"
              style="fill-rule:nonzero;"/>
        <path d="M1455.32,680.88C1455.32,694.421 1453.17,707.735 1448.87,720.821C1444.57,733.907 1438.45,745.007 1430.51,754.122C1421.53,764.539 1411.11,772.286 1399.26,777.364C1387.41,782.442 1374.13,784.981 1359.42,784.981C1347.18,784.981 1335.52,782.67 1324.46,778.048C1313.39,773.425 1303.56,766.687 1294.96,757.833C1286.5,749.109 1279.76,738.464 1274.75,725.899C1269.74,713.334 1267.23,699.239 1267.23,683.614C1267.23,653.536 1275.99,628.927 1293.5,609.786C1311.01,590.645 1333.96,581.075 1362.35,581.075C1389.3,581.075 1411.53,590.157 1429.05,608.321C1446.56,626.485 1455.32,650.671 1455.32,680.88ZM1414.89,681.27C1414.89,671.505 1413.91,661.186 1411.96,650.313C1410,639.441 1407.07,630.229 1403.17,622.677C1399,614.604 1393.53,608.126 1386.76,603.243C1379.99,598.36 1371.72,595.919 1361.96,595.919C1351.93,595.919 1343.37,598.393 1336.27,603.341C1329.18,608.289 1323.41,615.059 1318.99,623.653C1314.82,631.596 1311.89,640.645 1310.2,650.802C1308.51,660.958 1307.66,670.789 1307.66,680.294C1307.66,692.794 1308.67,704.35 1310.69,714.962C1312.7,725.574 1315.93,735.046 1320.36,743.38C1324.78,751.713 1330.35,758.256 1337.05,763.009C1343.76,767.761 1352.06,770.138 1361.96,770.138C1378.23,770.138 1391.12,762.26 1400.63,746.505C1410.13,730.75 1414.89,709.005 1414.89,681.27Z"
              style="fill-rule:nonzero;"/>
        <path d="M1576.8,779.122L1483.64,779.122L1483.64,766.231C1486.63,765.971 1489.72,765.711 1492.91,765.45C1496.1,765.19 1498.87,764.669 1501.21,763.888C1504.86,762.716 1507.56,760.665 1509.32,757.735C1511.08,754.806 1511.96,750.997 1511.96,746.309L1511.96,627.364C1511.96,623.197 1511.01,619.389 1509.12,615.938C1507.24,612.488 1504.6,609.591 1501.21,607.247C1498.74,605.684 1495.16,604.35 1490.47,603.243C1485.79,602.136 1481.49,601.453 1477.58,601.192L1477.58,588.497L1545.55,584.2L1548.29,586.934L1548.29,743.966C1548.29,748.523 1549.16,752.299 1550.92,755.294C1552.68,758.289 1555.45,760.502 1559.22,761.934C1562.09,763.106 1564.89,764.05 1567.62,764.767C1570.36,765.483 1573.41,765.971 1576.8,766.231L1576.8,779.122ZM1552.19,508.224C1552.19,515.645 1549.75,522.123 1544.87,527.657C1539.98,533.191 1533.96,535.958 1526.8,535.958C1520.16,535.958 1514.4,533.321 1509.52,528.048C1504.63,522.774 1502.19,516.752 1502.19,509.981C1502.19,502.82 1504.63,496.57 1509.52,491.231C1514.4,485.893 1520.16,483.224 1526.8,483.224C1534.22,483.224 1540.31,485.73 1545.06,490.743C1549.81,495.756 1552.19,501.583 1552.19,508.224Z"
              style="fill-rule:nonzero;"/>
        <path d="M1813.13,779.122L1718.79,779.122L1718.79,766.231C1721.79,765.971 1725.08,765.711 1728.66,765.45C1732.24,765.19 1735.2,764.669 1737.54,763.888C1741.19,762.716 1743.89,760.665 1745.65,757.735C1747.41,754.806 1748.29,750.997 1748.29,746.309L1748.29,647.286C1748.29,633.614 1745.06,623.067 1738.62,615.645C1732.17,608.224 1724.33,604.513 1715.08,604.513C1708.18,604.513 1701.87,605.587 1696.14,607.735C1690.41,609.884 1685.33,612.52 1680.9,615.645C1676.61,618.64 1673.19,621.863 1670.65,625.313C1668.11,628.764 1666.25,631.531 1665.08,633.614L1665.08,744.356C1665.08,748.783 1665.99,752.429 1667.82,755.294C1669.64,758.158 1672.37,760.372 1676.02,761.934C1678.75,763.237 1681.72,764.213 1684.91,764.864C1688.1,765.515 1691.38,765.971 1694.77,766.231L1694.77,779.122L1600.43,779.122L1600.43,766.231C1603.43,765.971 1606.52,765.711 1609.71,765.45C1612.9,765.19 1615.67,764.669 1618.01,763.888C1621.66,762.716 1624.36,760.665 1626.12,757.735C1627.87,754.806 1628.75,750.997 1628.75,746.309L1628.75,627.364C1628.75,622.937 1627.81,618.868 1625.92,615.157C1624.03,611.446 1621.4,608.419 1618.01,606.075C1615.54,604.513 1612.61,603.373 1609.22,602.657C1605.84,601.941 1602.19,601.453 1598.29,601.192L1598.29,588.497L1662.35,584.2L1665.08,586.934L1665.08,614.083L1666.06,614.083C1669.18,610.958 1673.09,607.214 1677.78,602.852C1682.46,598.49 1686.89,594.942 1691.06,592.208C1695.88,589.083 1701.61,586.479 1708.25,584.395C1714.89,582.312 1722.37,581.27 1730.71,581.27C1749.2,581.27 1762.9,587.032 1771.82,598.556C1780.74,610.079 1785.2,625.411 1785.2,644.552L1785.2,744.747C1785.2,749.304 1785.98,752.983 1787.54,755.782C1789.11,758.582 1791.77,760.763 1795.55,762.325C1798.67,763.627 1801.38,764.539 1803.66,765.059C1805.93,765.58 1809.09,765.971 1813.13,766.231L1813.13,779.122Z"
              style="fill-rule:nonzero;"/>
        <path d="M2144.18,775.606L2076.99,779.903L2074.07,777.169L2074.07,759.2L2072.5,758.809C2065.73,766.362 2057.37,772.546 2047.41,777.364C2037.44,782.182 2027.19,784.591 2016.64,784.591C2005.71,784.591 1995.13,782.149 1984.91,777.267C1974.68,772.384 1965.8,765.515 1958.25,756.661C1950.56,747.677 1944.48,736.869 1939.98,724.239C1935.49,711.609 1933.25,697.677 1933.25,682.442C1933.25,668.51 1935.65,655.294 1940.47,642.794C1945.29,630.294 1951.93,619.356 1960.39,609.981C1968.34,601.257 1978.07,594.291 1989.59,589.083C2001.12,583.875 2012.87,581.27 2024.85,581.27C2033.83,581.27 2042.65,582.41 2051.31,584.688C2059.97,586.967 2067.43,589.864 2073.68,593.38L2073.68,526.388C2073.68,520.919 2072.76,515.938 2070.94,511.446C2069.12,506.954 2066.58,503.536 2063.32,501.192C2059.68,498.718 2054.76,496.928 2048.58,495.821C2042.39,494.714 2035.72,493.901 2028.56,493.38L2028.56,481.27L2107.27,476.778L2110.2,479.708L2110.2,739.474C2110.2,744.031 2111.08,747.905 2112.84,751.095C2114.59,754.285 2117.16,756.987 2120.55,759.2C2123.02,760.763 2126.61,761.739 2131.29,762.13C2135.98,762.52 2140.28,762.781 2144.18,762.911L2144.18,775.606ZM2073.68,741.817L2073.68,629.122C2072.63,625.737 2070.94,622.091 2068.6,618.184C2066.25,614.278 2063.32,610.697 2059.81,607.442C2056.03,604.187 2051.61,601.485 2046.53,599.337C2041.45,597.188 2035.52,596.114 2028.75,596.114C2020.94,596.114 2013.75,598.132 2007.17,602.169C2000.6,606.205 1994.77,612 1989.69,619.552C1984.87,626.843 1981.06,636.121 1978.27,647.384C1975.47,658.647 1974.07,671.114 1974.07,684.786C1974.07,695.724 1975.11,705.652 1977.19,714.571C1979.27,723.49 1982.79,731.791 1987.74,739.474C1992.3,746.765 1998.12,752.625 2005.22,757.052C2012.31,761.479 2020.75,763.692 2030.51,763.692C2040.93,763.692 2049.55,761.414 2056.39,756.856C2063.23,752.299 2068.99,747.286 2073.68,741.817Z"
              style="fill-rule:nonzero;"/>
        <path d="M2334.03,733.809C2325.95,749.174 2315.15,761.414 2301.61,770.528C2288.06,779.643 2272.5,784.2 2254.93,784.2C2239.43,784.2 2225.86,781.466 2214.2,775.997C2202.55,770.528 2192.95,763.106 2185.39,753.731C2177.84,744.356 2172.21,733.419 2168.5,720.919C2164.79,708.419 2162.93,695.203 2162.93,681.27C2162.93,668.77 2164.92,656.498 2168.89,644.454C2172.86,632.41 2178.69,621.57 2186.37,611.934C2193.79,602.69 2203.01,595.235 2214.01,589.571C2225.01,583.907 2237.35,581.075 2251.02,581.075C2265.08,581.075 2277.13,583.289 2287.15,587.716C2297.18,592.143 2305.32,598.197 2311.57,605.88C2317.55,613.171 2322.01,621.765 2324.95,631.661C2327.87,641.557 2329.34,652.299 2329.34,663.888L2329.34,676.778L2201.8,676.778C2201.8,689.408 2203.01,700.867 2205.41,711.153C2207.82,721.44 2211.63,730.489 2216.84,738.302C2221.92,745.854 2228.56,751.811 2236.76,756.173C2244.96,760.535 2254.73,762.716 2266.06,762.716C2277.65,762.716 2287.64,760.014 2296.04,754.61C2304.44,749.207 2312.54,739.474 2320.36,725.411L2334.03,733.809ZM2290.86,660.372C2290.86,653.08 2290.24,645.268 2289.01,636.934C2287.77,628.601 2285.78,621.635 2283.05,616.036C2280.05,610.046 2275.95,605.164 2270.74,601.388C2265.54,597.612 2258.83,595.724 2250.63,595.724C2236.96,595.724 2225.6,601.42 2216.55,612.813C2207.5,624.207 2202.58,640.059 2201.8,660.372L2290.86,660.372Z"
              style="fill-rule:nonzero;"/>
        <g transform="matrix(1,0,0,1,361.488,-532.832)">
            <g id="volutes" transform="matrix(0.148457,0,0,0.148457,2106.75,817.277)">
                <path d="M1040.19,1195.92C1160.56,1334.5 1008.56,1459.21 1008.56,1459.21C1008.56,1459.21 1314.2,1301.43 1173.84,1103.84C1042.74,919.595 942.197,828.035 1486.47,512.384C1486.47,512.384 632.146,725.751 1040.19,1195.91"
                      style="fill-rule:nonzero;"/>
                <path d="M1173.84,2.681C1173.84,2.681 1433.14,262.074 927.905,660.925C522.767,980.882 835.52,1163.31 927.738,1371.74C691.25,1158.37 517.695,970.542 634.133,795.73C805.022,539.104 1278.45,414.689 1173.84,2.673"
                      style="fill-rule:nonzero;"/>
            </g>
            <g id="cup" transform="matrix(1,0,0,1,0,-3.14494)">
                <path d="M2328.01,1324.03C2320.16,1330.04 2311.87,1335.12 2303.2,1339.18L2207.63,1339.18C2144.02,1309.42 2100.96,1224.15 2100.96,1127.94C2100.96,1086.81 2108.91,1046.48 2123.9,1011.45L2386.93,1011.45C2390.47,1019.71 2393.62,1028.27 2396.35,1037.05L2418.4,1037.05C2435.07,1037.05 2451.47,1039.72 2467.62,1045.05C2483.76,1050.39 2497.83,1057.58 2509.8,1066.63C2526.08,1078.64 2538.84,1094.38 2548.09,1113.82C2557.33,1133.27 2561.95,1156.16 2561.95,1182.49C2561.95,1206.93 2557.53,1228.13 2548.67,1246.09C2539.82,1264.05 2528.29,1278.77 2514.1,1290.25C2499.78,1301.73 2483.7,1310.3 2465.86,1315.97C2448.02,1321.64 2429.6,1324.48 2410.59,1324.48L2327.42,1324.48C2327.62,1324.33 2327.81,1324.18 2328.01,1324.03ZM2375.23,1268.13L2375.23,1275.26C2375.23,1287.55 2378.68,1296.06 2385.59,1300.78C2392.49,1305.51 2403.1,1307.87 2417.42,1307.87C2433.96,1307.87 2448.41,1304.83 2460.78,1298.76C2473.15,1292.68 2483.18,1284.24 2490.86,1273.44C2498.93,1262.09 2504.82,1248.96 2508.53,1234.04C2512.25,1219.12 2514.1,1201.87 2514.1,1182.29C2514.1,1162.98 2511.63,1145.52 2506.68,1129.92C2501.73,1114.33 2494.51,1100.72 2485,1089.11C2476.02,1078.04 2464.98,1069.33 2451.89,1062.98C2438.81,1056.63 2424.26,1053.46 2408.24,1053.46C2405.94,1053.46 2403.51,1053.48 2400.95,1053.52C2406.83,1077.3 2409.88,1102.47 2409.88,1127.94C2409.88,1180.31 2397.12,1229.43 2375.23,1268.13ZM2400.68,1052.42L2400.7,1052.51L2400.69,1052.47L2400.68,1052.42ZM2400.41,1051.39L2400.44,1051.49L2400.42,1051.43L2400.41,1051.39ZM2400.15,1050.38L2400.16,1050.42L2400.15,1050.38ZM2399.32,1047.25L2399.34,1047.3L2399.33,1047.29L2399.32,1047.25ZM2399.03,1046.16L2399.07,1046.31L2399.05,1046.25L2399.03,1046.16ZM2398.74,1045.14L2398.79,1045.31L2398.77,1045.22L2398.74,1045.14ZM2398.47,1044.15L2398.5,1044.28L2398.48,1044.19L2398.47,1044.15ZM2397.58,1041.09L2397.59,1041.13L2397.58,1041.09ZM2397.26,1040.01L2397.3,1040.16L2397.29,1040.1L2397.26,1040.01ZM2396.95,1039L2397.01,1039.17L2396.98,1039.08L2396.95,1039ZM2396.65,1038.02L2396.7,1038.15L2396.67,1038.07L2396.65,1038.02Z"
                      style="fill-rule:nonzero;"/>
            </g>
        </g>
        <path d="M3151.8,775.606L3089.11,779.903L3086.18,777.169L3086.18,752.755L3085,752.755C3081.88,756.01 3078.36,759.493 3074.46,763.204C3070.55,766.915 3066.06,770.268 3060.98,773.263C3055.12,776.778 3049.46,779.447 3043.99,781.27C3038.52,783.093 3030.77,784.005 3020.74,784.005C3003.69,784.005 2990.7,778.438 2981.78,767.306C2972.86,756.173 2968.4,739.994 2968.4,718.77L2968.4,626.583C2968.4,621.895 2967.52,617.957 2965.76,614.767C2964.01,611.576 2961.44,608.809 2958.05,606.466C2955.71,604.903 2952.78,603.764 2949.26,603.048C2945.74,602.332 2942.03,601.843 2938.13,601.583L2938.13,588.888L3002.39,584.2L3005.32,586.934L3005.32,720.724C3005.32,734.656 3008.44,745.138 3014.69,752.169C3020.94,759.2 3028.43,762.716 3037.15,762.716C3044.31,762.716 3050.69,761.609 3056.29,759.395C3061.89,757.182 3066.58,754.578 3070.36,751.583C3073.87,748.849 3076.96,745.951 3079.63,742.892C3082.3,739.832 3084.35,737 3085.78,734.395L3085.78,625.216C3085.78,620.919 3084.87,617.11 3083.05,613.79C3081.23,610.47 3078.69,607.638 3075.43,605.294C3073.09,603.731 3069.61,602.787 3064.98,602.462C3060.36,602.136 3055.19,601.843 3049.46,601.583L3049.46,588.888L3119.38,584.2L3122.31,586.934L3122.31,739.864C3122.31,744.291 3123.22,748.067 3125.04,751.192C3126.87,754.317 3129.4,756.987 3132.66,759.2C3135,760.632 3137.8,761.576 3141.06,762.032C3144.31,762.488 3147.89,762.781 3151.8,762.911L3151.8,775.606Z"
              style="fill-rule:nonzero;"/>
        <path d="M3264.49,784.2C3236.63,784.2 3214.82,774.955 3199.07,756.466C3183.31,737.976 3175.43,713.171 3175.43,682.052C3175.43,668.51 3177.55,655.847 3181.78,644.063C3186.01,632.28 3192.16,621.57 3200.24,611.934C3207.92,602.69 3217.56,595.235 3229.14,589.571C3240.73,583.907 3253.36,581.075 3267.03,581.075C3285.91,581.075 3301.28,585.6 3313.13,594.649C3324.98,603.699 3330.9,616.036 3330.9,631.661C3330.9,638.171 3329.34,643.933 3326.21,648.946C3323.09,653.959 3317.95,656.466 3310.78,656.466C3303.1,656.466 3297.14,654.513 3292.91,650.606C3288.68,646.7 3286.57,642.338 3286.57,637.52C3286.57,631.661 3287.35,625.639 3288.91,619.454C3290.47,613.269 3291.38,608.744 3291.64,605.88C3289.3,601.843 3285.82,599.142 3281.2,597.774C3276.57,596.407 3271.59,595.724 3266.25,595.724C3260,595.724 3254.05,597.058 3248.38,599.727C3242.72,602.397 3237.22,607.312 3231.88,614.474C3227.06,620.984 3223.15,629.773 3220.16,640.841C3217.16,651.908 3215.67,665.125 3215.67,680.489C3215.67,704.708 3221.04,724.467 3231.78,739.767C3242.52,755.066 3256.62,762.716 3274.07,762.716C3286.7,762.716 3297.28,759.656 3305.8,753.536C3314.33,747.416 3322.24,738.237 3329.53,725.997L3342.03,734.2C3333.44,749.565 3322.11,761.739 3308.05,770.724C3293.99,779.708 3279.47,784.2 3264.49,784.2Z"
              style="fill-rule:nonzero;"/>
        <path d="M3544.77,680.88C3544.77,694.421 3542.62,707.735 3538.32,720.821C3534.03,733.907 3527.91,745.007 3519.96,754.122C3510.98,764.539 3500.56,772.286 3488.71,777.364C3476.87,782.442 3463.58,784.981 3448.87,784.981C3436.63,784.981 3424.98,782.67 3413.91,778.048C3402.84,773.425 3393.01,766.687 3384.42,757.833C3375.95,749.109 3369.22,738.464 3364.2,725.899C3359.19,713.334 3356.68,699.239 3356.68,683.614C3356.68,653.536 3365.44,628.927 3382.95,609.786C3400.47,590.645 3423.41,581.075 3451.8,581.075C3478.75,581.075 3500.99,590.157 3518.5,608.321C3536.01,626.485 3544.77,650.671 3544.77,680.88ZM3504.34,681.27C3504.34,671.505 3503.36,661.186 3501.41,650.313C3499.46,639.441 3496.53,630.229 3492.62,622.677C3488.45,614.604 3482.99,608.126 3476.21,603.243C3469.44,598.36 3461.18,595.919 3451.41,595.919C3441.38,595.919 3432.82,598.393 3425.73,603.341C3418.63,608.289 3412.87,615.059 3408.44,623.653C3404.27,631.596 3401.34,640.645 3399.65,650.802C3397.96,660.958 3397.11,670.789 3397.11,680.294C3397.11,692.794 3398.12,704.35 3400.14,714.962C3402.16,725.574 3405.38,735.046 3409.81,743.38C3414.24,751.713 3419.8,758.256 3426.51,763.009C3433.21,767.761 3441.51,770.138 3451.41,770.138C3467.69,770.138 3480.58,762.26 3490.08,746.505C3499.59,730.75 3504.34,709.005 3504.34,681.27Z"
              style="fill-rule:nonzero;"/>
        <path d="M3768.21,682.638C3768.21,711.544 3759.09,735.828 3740.86,755.489C3722.63,775.151 3701.47,784.981 3677.39,784.981C3666.84,784.981 3656.45,783.354 3646.23,780.099C3636.01,776.843 3626.41,772.481 3617.43,767.013L3602.97,789.474L3590.86,786.739C3591.51,777.104 3591.97,765.515 3592.23,751.974C3592.49,738.432 3592.62,725.346 3592.62,712.716L3592.62,522.091C3592.62,517.664 3591.61,513.237 3589.59,508.809C3587.58,504.382 3585,501.192 3581.88,499.239C3579.4,497.546 3575.27,496.277 3569.48,495.431C3563.68,494.584 3559.03,494.031 3555.51,493.77L3555.51,481.27L3626.21,476.778L3628.95,479.708L3628.95,606.661L3630.32,607.052C3638.39,598.458 3647.21,592.013 3656.78,587.716C3666.35,583.419 3675.76,581.27 3685,581.27C3708.7,581.27 3728.49,590.645 3744.38,609.395C3760.26,628.145 3768.21,652.559 3768.21,682.638ZM3727.39,684.005C3727.39,674.369 3726.34,664.539 3724.26,654.513C3722.18,644.487 3718.92,635.763 3714.49,628.341C3710.07,620.789 3704.27,614.669 3697.11,609.981C3689.95,605.294 3681.36,602.95 3671.33,602.95C3662.22,602.95 3654.24,604.74 3647.41,608.321C3640.57,611.902 3634.42,616.752 3628.95,622.872L3628.95,734.981C3629.73,738.106 3631.26,741.752 3633.54,745.919C3635.82,750.086 3638.91,754.057 3642.82,757.833C3646.72,761.479 3651.15,764.441 3656.1,766.72C3661.05,768.998 3667.1,770.138 3674.26,770.138C3690.15,770.138 3702.97,762.455 3712.74,747.091C3722.5,731.726 3727.39,710.697 3727.39,684.005Z"
              style="fill-rule:nonzero;"/>
        <path d="M4003.17,775.606L3940.47,779.903L3937.54,777.169L3937.54,752.755L3936.37,752.755C3933.24,756.01 3929.73,759.493 3925.82,763.204C3921.92,766.915 3917.43,770.268 3912.35,773.263C3906.49,776.778 3900.82,779.447 3895.36,781.27C3889.89,783.093 3882.14,784.005 3872.11,784.005C3855.06,784.005 3842.07,778.438 3833.15,767.306C3824.23,756.173 3819.77,739.994 3819.77,718.77L3819.77,626.583C3819.77,621.895 3818.89,617.957 3817.13,614.767C3815.37,611.576 3812.8,608.809 3809.42,606.466C3807.07,604.903 3804.14,603.764 3800.63,603.048C3797.11,602.332 3793.4,601.843 3789.49,601.583L3789.49,588.888L3853.75,584.2L3856.68,586.934L3856.68,720.724C3856.68,734.656 3859.81,745.138 3866.06,752.169C3872.31,759.2 3879.8,762.716 3888.52,762.716C3895.68,762.716 3902.06,761.609 3907.66,759.395C3913.26,757.182 3917.95,754.578 3921.72,751.583C3925.24,748.849 3928.33,745.951 3931,742.892C3933.67,739.832 3935.72,737 3937.15,734.395L3937.15,625.216C3937.15,620.919 3936.24,617.11 3934.42,613.79C3932.59,610.47 3930.06,607.638 3926.8,605.294C3924.46,603.731 3920.97,602.787 3916.35,602.462C3911.73,602.136 3906.55,601.843 3900.82,601.583L3900.82,588.888L3970.74,584.2L3973.68,586.934L3973.68,739.864C3973.68,744.291 3974.59,748.067 3976.41,751.192C3978.23,754.317 3980.77,756.987 3984.03,759.2C3986.37,760.632 3989.17,761.576 3992.43,762.032C3995.68,762.488 3999.26,762.781 4003.17,762.911L4003.17,775.606Z"
              style="fill-rule:nonzero;"/>
    </g>
</svg>
