<svg xmlns:xlink="http://www.w3.org/1999/xlink" width="100%" height="100%" viewBox="0 0 64 64" version="1.1"
     xmlns="http://www.w3.org/2000/svg" xml:space="preserve"
     style="fill-rule:evenodd;clip-rule:evenodd;stroke-linejoin:round;stroke-miterlimit:2;">
    <g>
        <path d="M22.284,0.146C23.176,0.05 24.082,0 25,0C38.798,0 50,11.202 50,25C50,31.064 47.836,36.627 44.238,40.959C44.848,40.704 45.578,40.825 46.074,41.321L63.505,58.752C64.161,59.408 64.161,60.473 63.505,61.129L61.129,63.505C60.473,64.161 59.408,64.161 58.752,63.505L41.321,46.074C40.825,45.578 40.705,44.847 40.959,44.238C37.272,47.301 32.69,49.326 27.665,49.859L27.555,49.871L27.519,49.874L27.395,49.887C26.603,49.962 25.801,50.001 24.99,50.001C11.197,50.001 -0.01,38.799 -0.01,25.001C-0.01,12.117 9.76,1.498 22.284,0.146ZM25,6.25C35.348,6.25 43.75,14.652 43.75,25C43.75,35.348 35.348,43.75 25,43.75C14.652,43.75 6.25,35.348 6.25,25C6.25,14.652 14.652,6.25 25,6.25Z"/>
    </g>
</svg>
