<?xml version="1.0" encoding="UTF-8" standalone="no"?>
<!DOCTYPE svg PUBLIC "-//W3C//DTD SVG 1.1//EN" "http://www.w3.org/Graphics/SVG/1.1/DTD/svg11.dtd">
<svg xmlns:xlink="http://www.w3.org/1999/xlink" xmlns:serif="http://www.serif.com/" width="100%" height="100%"
     viewBox="0 0 64 64" version="1.1" xmlns="http://www.w3.org/2000/svg" xml:space="preserve"
     style="fill-rule:evenodd;clip-rule:evenodd;stroke-linejoin:round;stroke-miterlimit:2;">
    <g>
        <path d="M45.259,48.482C40.464,52.548 34.26,55.001 27.49,55.001C12.317,55.001 -0.01,42.679 -0.01,27.501C-0.01,12.323 12.317,0.001 27.49,0.001C42.663,0.001 54.99,12.323 54.99,27.501C54.99,34.267 52.54,40.466 48.48,45.26C49.098,44.982 49.85,45.097 50.357,45.604L63.505,58.752C64.161,59.408 64.161,60.473 63.505,61.129L61.129,63.505C60.473,64.161 59.408,64.161 58.752,63.505L45.604,50.357C45.098,49.851 44.983,49.1 45.259,48.482ZM27.49,5.605C39.578,5.605 49.383,15.416 49.383,27.501C49.383,39.586 39.578,49.397 27.49,49.397C15.402,49.397 5.598,39.586 5.598,27.501C5.598,15.416 15.402,5.605 27.49,5.605Z"/>
    </g>
</svg>
