<?xml version="1.0" encoding="UTF-8" standalone="no"?>
<!DOCTYPE svg PUBLIC "-//W3C//DTD SVG 1.1//EN" "http://www.w3.org/Graphics/SVG/1.1/DTD/svg11.dtd">
<svg xmlns:xlink="http://www.w3.org/1999/xlink" xmlns:serif="http://www.serif.com/" width="100%" height="100%"
     viewBox="0 0 64 64" version="1.1" xmlns="http://www.w3.org/2000/svg" xml:space="preserve"
     style="fill-rule:evenodd;clip-rule:evenodd;stroke-linecap:round;stroke-linejoin:round;stroke-miterlimit:1.5;">
    <g transform="matrix(1.18519,0,0,1.18519,-5.92593,-5.92593)">
        <g transform="matrix(0.960938,0,0,1,0.289062,-8.88178e-16)">
            <path d="M17.077,45C17.558,41.887 20.253,39.5 23.5,39.5C26.747,39.5 29.442,41.887 29.923,45L59,45C59.552,45 60,45.448 60,46C60,46.552 59.552,47 59,47L29.923,47C29.442,50.113 26.747,52.5 23.5,52.5C20.253,52.5 17.558,50.113 17.077,47L7,47C6.448,47 6,46.552 6,46C6,45.448 6.448,45 7,45L17.077,45ZM19.16,47L19.161,47C19.093,46.704 19.054,46.397 19.048,46.081L19.048,46.031L19.047,46L19.048,45.949L19.048,45.919C19.054,45.603 19.093,45.296 19.161,45L19.16,45C19.615,43.023 21.386,41.547 23.5,41.547C25.957,41.547 27.953,43.543 27.953,46C27.953,48.457 25.957,50.453 23.5,50.453C21.386,50.453 19.615,48.977 19.16,47Z"
                  style="stroke:black;stroke-width:2.15px;"/>
        </g>
        <g transform="matrix(0.960937,0,0,1,0.289063,1.77636e-15)">
            <path d="M36.077,31C36.558,27.887 39.253,25.5 42.5,25.5C45.747,25.5 48.442,27.887 48.923,31L59,31C59.552,31 60,31.448 60,32C60,32.552 59.552,33 59,33L48.923,33C48.442,36.113 45.747,38.5 42.5,38.5C39.253,38.5 36.558,36.113 36.077,33L7,33C6.448,33 6,32.552 6,32C6,31.448 6.448,31 7,31L36.077,31ZM38.16,33L38.161,33C38.093,32.704 38.054,32.397 38.048,32.081L38.048,32.031L38.047,32L38.048,31.949L38.048,31.919C38.054,31.603 38.093,31.296 38.161,31L38.16,31C38.615,29.023 40.386,27.547 42.5,27.547C44.957,27.547 46.953,29.543 46.953,32C46.953,34.457 44.957,36.453 42.5,36.453C40.386,36.453 38.615,34.977 38.16,33Z"
                  style="stroke:black;stroke-width:2.15px;"/>
        </g>
        <g transform="matrix(0.960938,0,0,1,1.25,8.88178e-16)">
            <path d="M18.077,17C18.558,13.887 21.253,11.5 24.5,11.5C27.747,11.5 30.442,13.887 30.923,17L58,17C58.552,17 59,17.448 59,18C59,18.552 58.552,19 58,19L30.923,19C30.442,22.113 27.747,24.5 24.5,24.5C21.253,24.5 18.558,22.113 18.077,19L6,19C5.448,19 5,18.552 5,18C5,17.448 5.448,17 6,17L18.077,17ZM20.16,19L20.161,19C20.093,18.704 20.054,18.397 20.048,18.081L20.048,18.031L20.047,18L20.048,17.949L20.048,17.919C20.054,17.603 20.093,17.296 20.161,17L20.16,17C20.615,15.023 22.386,13.547 24.5,13.547C26.957,13.547 28.953,15.543 28.953,18C28.953,20.457 26.957,22.453 24.5,22.453C22.386,22.453 20.615,20.977 20.16,19Z"
                  style="stroke:black;stroke-width:2.15px;"/>
        </g>
    </g>
</svg>
