<svg xmlns:xlink="http://www.w3.org/1999/xlink" width="100%" height="100%" viewBox="0 0 64 64" version="1.1"
     xmlns="http://www.w3.org/2000/svg" xml:space="preserve"
     style="fill-rule:evenodd;clip-rule:evenodd;stroke-linejoin:round;stroke-miterlimit:2;">
    <g transform="matrix(1,0,0,1,0,-3.4977)">
        <path d="M12.352,51C13.437,47.247 16.9,44.5 21,44.5C25.093,44.5 28.552,47.238 29.642,50.982L61.5,50.982C62.88,50.982 64,52.101 64,53.48C64,54.859 62.88,55.978 61.5,55.978L61.5,56L31,56L31,55.972L29.656,55.972C28.58,59.739 25.11,62.5 21,62.5C16.907,62.5 13.448,59.762 12.358,56.018L2.5,56.018L2.5,55.997C1.12,55.997 -0,54.877 -0,53.498C-0,52.119 1.12,51 2.5,51L12.352,51ZM21,49C23.484,49 25.5,51.016 25.5,53.5C25.5,55.984 23.484,58 21,58C18.516,58 16.5,55.984 16.5,53.5C16.5,51.016 18.516,49 21,49Z"/>
    </g>
    <g transform="matrix(1,0,0,1,0,-2.51612)">
        <path d="M51.645,37.028C50.557,40.776 47.096,43.518 43,43.518C38.894,43.518 35.426,40.762 34.347,37L33,37L33,37.028L2.5,37.028L2.5,37.006C1.12,37.006 -0,35.886 -0,34.508C-0,33.129 1.12,32.009 2.5,32.009L34.355,32.009C35.443,28.261 38.904,25.518 43,25.518C47.096,25.518 50.557,28.261 51.645,32.009L61.5,32.009C62.88,32.009 64,33.129 64,34.508C64,35.886 62.88,37.006 61.5,37.006L61.5,37.028L51.645,37.028ZM43,30.018C45.484,30.018 47.5,32.035 47.5,34.518C47.5,37.002 45.484,39.018 43,39.018C40.516,39.018 38.5,37.002 38.5,34.518C38.5,32.035 40.516,30.018 43,30.018Z"/>
    </g>
    <g transform="matrix(1,0,0,1,-2.13163e-14,-1.49309)">
        <path d="M32.14,18.018C31.046,21.757 27.59,24.491 23.5,24.491C19.404,24.491 15.943,21.748 14.855,18L2.5,18L2.5,17.978C1.12,17.978 0,16.859 0,15.48C0,14.101 1.12,12.982 2.5,12.982L14.855,12.982C15.943,9.234 19.404,6.491 23.5,6.491C27.603,6.491 31.069,9.243 32.15,13L61.5,13C62.88,13 64,14.119 64,15.498C64,16.877 62.88,17.997 61.5,17.997L61.5,18.018L32.14,18.018ZM23.5,10.991C25.984,10.991 28,13.007 28,15.491C28,17.974 25.984,19.991 23.5,19.991C21.016,19.991 19,17.974 19,15.491C19,13.007 21.016,10.991 23.5,10.991Z"/>
    </g>
</svg>
