<?xml version="1.0" encoding="UTF-8" standalone="no"?>
<!DOCTYPE svg PUBLIC "-//W3C//DTD SVG 1.1//EN" "http://www.w3.org/Graphics/SVG/1.1/DTD/svg11.dtd">
<svg xmlns:xlink="http://www.w3.org/1999/xlink" xmlns:serif="http://www.serif.com/" width="100%" height="100%"
     viewBox="0 0 1024 1024" version="1.1" xmlns="http://www.w3.org/2000/svg" xml:space="preserve"
     style="fill-rule:evenodd;clip-rule:evenodd;stroke-linejoin:round;stroke-miterlimit:2;">
    <path d="M458.472,237.029C458.626,237.184 499.16,278.002 419.737,340.702C364.708,384.161 393.771,411.51 412.129,439.273L444.481,439.273C443.814,434.751 441.721,429.913 437.422,424.963L437.422,424.962C373.155,350.912 507.71,317.307 507.71,317.307C421.988,367.021 437.823,381.442 458.471,410.461C465.979,421.029 465.385,430.874 461.325,439.273L570.841,439.273C574.592,448.035 577.927,457.111 580.833,466.434L604.225,466.434C621.91,466.434 639.309,469.256 656.443,474.922C673.566,480.576 688.493,488.204 701.192,497.806C718.464,510.558 732.001,527.246 741.814,547.881C751.617,568.505 756.518,592.789 756.518,620.723C756.518,646.662 751.829,669.153 742.429,688.207C733.04,707.261 720.808,722.878 705.754,735.046C690.562,747.226 673.502,756.328 654.576,762.343C635.649,768.359 616.107,771.372 595.939,771.372L507.703,771.372C509.429,770.06 511.138,768.704 512.828,767.306C503.188,775.252 492.882,781.867 482.01,786.953L380.619,786.953C313.134,755.378 267.454,664.925 267.454,562.855C267.454,519.219 275.871,476.434 291.788,439.273L405.269,439.273C375.92,411.105 357.603,385.752 373.468,361.933C400.383,321.515 474.947,301.92 458.472,237.029L458.471,237.029L458.471,237.027L458.472,237.029ZM581.359,468.141C590.436,497.888 595.175,530.132 595.175,562.855C595.175,618.412 581.642,670.527 558.425,711.578L558.425,719.154C558.425,732.182 562.085,741.21 569.416,746.228C576.737,751.236 587.993,753.75 603.185,753.75C620.733,753.75 636.063,750.525 649.186,744.075C662.31,737.624 672.95,728.681 681.098,717.212C689.66,705.182 695.909,691.252 699.845,675.413C703.791,659.584 705.754,641.283 705.754,620.51C705.754,600.024 703.133,581.511 697.882,564.961C692.63,548.411 684.971,533.983 674.881,521.655C665.354,509.911 653.642,500.67 639.755,493.944C625.878,487.207 610.442,483.844 593.446,483.844C591.006,483.844 588.428,483.855 585.712,483.897C584.393,478.573 582.945,473.319 581.359,468.141ZM581.145,467.444L581.321,468.016L581.166,467.51L581.145,467.444Z"
          style="fill-rule:nonzero;"/>
</svg>
